<?xml version="1.0" encoding="utf-8"?>
<!-- Generator: Adobe Illustrator 22.0.1, SVG Export Plug-In . SVG Version: 6.00 Build 0)  -->
<svg version="1.1" xmlns="http://www.w3.org/2000/svg" xmlns:xlink="http://www.w3.org/1999/xlink" x="0px" y="0px"
	 viewBox="0 0 150 150" style="enable-background:new 0 0 150 150;" xml:space="preserve">
<style type="text/css">
	.st0{display:none;}
	.st1{display:inline;fill:#FFD046;}
	.st2{display:inline;}
	.st3{fill:none;stroke:#444A54;stroke-width:8;stroke-linecap:round;stroke-linejoin:round;stroke-miterlimit:10;}
	.st4{display:inline;fill:#F1813A;}
	.st5{fill:#8DB654;}
	.st6{fill:#6795CE;}
	.st7{fill:none;stroke:#6C6E70;stroke-width:5;stroke-linecap:round;stroke-linejoin:round;stroke-miterlimit:10;}
	.st8{fill:#444A54;}
	.st9{fill:#FFD046;}
	.st10{fill:#F1813A;}
	.st11{fill:#FFFFFF;stroke:#444A54;stroke-width:8;stroke-linecap:round;stroke-linejoin:round;stroke-miterlimit:10;}
	.st12{display:inline;fill:none;stroke:#444A54;stroke-width:8;stroke-linecap:round;stroke-linejoin:round;stroke-miterlimit:10;}
	.st13{display:inline;fill:#6C6E70;}
	.st14{display:inline;fill:#444A54;}
	.st15{display:inline;fill:#6795CE;}
	.st16{fill:#42CCFC;}
	.st17{fill:#FFFFFF;}
	.st18{fill:#DB3C2C;}
	.st19{fill:#0593C4;}
</style>
<g id="Mobile" class="st0">
	<rect x="51.7" y="26.3" class="st1" width="68.6" height="92.2"/>
	<g class="st2">
		<path class="st3" d="M118.9,147.8l-85.8,0.1c-1.7,0-3-1.3-3-3L30,6c0-1.7,1.3-3,3-3l85.8-0.1c1.7,0,3,1.3,3,3l0.2,138.9
			C121.9,146.4,120.5,147.8,118.9,147.8z"/>
		<line class="st3" x1="70" y1="132.6" x2="82" y2="132.5"/>
		<line class="st3" x1="31.2" y1="26.3" x2="120.6" y2="26.2"/>
		<line class="st3" x1="120.3" y1="118.5" x2="31.6" y2="118.6"/>
	</g>
</g>
<g id="DTH" class="st0">
	<path class="st4" d="M113.1,137.9c-10.8,6.6-14.8,9.6-28.4,9.6c-39.5,0-63.6-13.6-63.6-53.2c0-13.3,3.6-25.7,9.9-36.4L113.1,137.9z
		"/>
	<g class="st2">
		<circle class="st3" cx="86" cy="64" r="7.6"/>
		<path class="st3" d="M81.8,29c21.7,0.2,39.2,17.9,39,39.6"/>
		<path class="st3" d="M77.6,4c38,0.3,68.5,31.3,68.2,69.2"/>
		<path class="st3" d="M110.8,135.8c-10.6,6.5-23.1,10.2-36.4,10.2c-38.7,0-70.1-31.4-70.1-70.1c0-13,3.5-25.2,9.7-35.6L110.8,135.8
			z"/>
	</g>
</g>
<g id="Electricity" class="st0">
	<g class="st2">
		<path class="st5" d="M72.3,120.2l18.2,0c5.8,0,10.4-4.7,10.4-10.4v0l0.1-9.6c9.7-7.8,15.9-19.7,15.9-33.1
			c0-24.2-20.1-43.6-44.5-42.5"/>
		<g>
			<line class="st3" x1="74.3" y1="8.5" x2="74.3" y2="4"/>
			<line class="st3" x1="45.3" y1="16.6" x2="43.1" y2="12.7"/>
			<line class="st3" x1="24.3" y1="38.2" x2="20.4" y2="35.9"/>
			<line class="st3" x1="16.8" y1="67.3" x2="12.3" y2="67.3"/>
			<line class="st3" x1="25" y1="96.3" x2="21.1" y2="98.6"/>
			<line class="st3" x1="125.7" y1="95.2" x2="129.6" y2="97.4"/>
			<line class="st3" x1="133.2" y1="66" x2="137.7" y2="66"/>
			<line class="st3" x1="125" y1="37" x2="128.9" y2="34.7"/>
			<line class="st3" x1="103.5" y1="15.9" x2="105.7" y2="12.1"/>
			<path class="st3" d="M91.7,132.1l0,7.9c0,3.3-2.7,6-6,6l-22.9,0c-3.3,0-6-2.6-6-5.9l0-8L91.7,132.1z"/>
			<path class="st3" d="M116.9,67.2c0-24.2-20.1-43.6-44.5-42.5c-22.1,1-40.1,19.6-40.5,41.7c-0.2,13.7,6,26,15.9,33.9l-0.1,9.5v0
				c0,5.7,4.7,10.4,10.4,10.4l32.5,0c5.8,0,10.4-4.7,10.4-10.4v0l0.1-9.6C110.7,92.5,116.9,80.5,116.9,67.2z"/>
		</g>
	</g>
</g>
<g id="Datacard" class="st0">
	<g class="st2">
		<polyline class="st6" points="46.6,32.9 46.5,15.2 46.5,4.1 103.4,4 103.4,15.1 103.5,32.9 		"/>
		<path class="st3" d="M110.5,145.9L39.7,146c-5.3,0-9.6-4.3-9.6-9.5l-0.1-91c0-5.3,4.3-9.6,9.5-9.6l70.8-0.1c5.3,0,9.6,4.3,9.6,9.5
			l0.1,91C120,141.6,115.7,145.9,110.5,145.9z"/>
		<path class="st7" d="M118.7,58.7"/>
		<polyline class="st3" points="46.6,32.9 46.5,15.2 46.5,4.1 103.4,4 103.4,15.1 103.5,32.9 		"/>
		<circle class="st8" cx="75" cy="120.4" r="7.8"/>
	</g>
</g>
<g id="Landline" class="st0">
	<g class="st2">
		<g>
			<g>
				<g>
					<line class="st3" x1="79" y1="71.5" x2="84.2" y2="71.5"/>
					<line class="st3" x1="100.7" y1="71.5" x2="105.9" y2="71.5"/>
					<line class="st3" x1="122.4" y1="71.5" x2="127.6" y2="71.5"/>
					<line class="st3" x1="79" y1="86.6" x2="84.2" y2="86.6"/>
					<line class="st3" x1="100.7" y1="86.6" x2="105.9" y2="86.6"/>
					<line class="st3" x1="122.4" y1="86.6" x2="127.6" y2="86.6"/>
					<line class="st3" x1="79" y1="101.8" x2="84.2" y2="101.8"/>
					<line class="st3" x1="100.7" y1="101.8" x2="105.9" y2="101.8"/>
					<line class="st3" x1="122.4" y1="101.8" x2="127.6" y2="101.8"/>
				</g>
			</g>
			<g>
				<polyline class="st3" points="130.5,16.5 146,16.5 146,135.3 60.6,135.3 60.6,16.5 76.1,16.5 				"/>
			</g>
			<g>
				<rect x="76.1" y="11" class="st9" width="54.4" height="24.3"/>
				<rect x="76.1" y="11" class="st3" width="54.4" height="24.3"/>
			</g>
			<g>
				<path class="st9" d="M20.5,139C11.4,139,4,131.5,4,122.4v-20.6c0,0,2.8-19.2,2.8-24.6C6.8,70.4,4,52.8,4,52.8V27.6
					C4,18.5,11.4,11,20.5,11h5.5c9.1,0,16.5,7.4,16.5,16.5v25.2c0,0-2.8,17.6-2.8,24.4c0,5.5,2.8,24.6,2.8,24.6v20.6
					c0,9.1-7.4,16.5-16.5,16.5H20.5z"/>
				<path class="st3" d="M20.5,139C11.4,139,4,131.5,4,122.4v-20.6c0,0,2.8-19.2,2.8-24.6C6.8,70.4,4,52.8,4,52.8V27.6
					C4,18.5,11.4,11,20.5,11h5.5c9.1,0,16.5,7.4,16.5,16.5v25.2c0,0-2.8,17.6-2.8,24.4c0,5.5,2.8,24.6,2.8,24.6v20.6
					c0,9.1-7.4,16.5-16.5,16.5H20.5z"/>
			</g>
		</g>
	</g>
</g>
<g id="Layer_6" class="st0">
	<g class="st2">
		<path class="st10" d="M113.8,86.7v26.8c0,11-8.9,20-20,20H56.2c-11,0-20-8.9-20-20V86.7"/>
		<g>
			<g>
				<g>
					<path class="st3" d="M75,58.1"/>
					<path class="st3" d="M100.8,133.5H49.2c-7.2,0-13-5.8-13-13V41.2c0-7.2,5.8-13,13-13h51.5c7.2,0,13,5.8,13,13v79.2
						C113.8,127.7,107.9,133.5,100.8,133.5z"/>
					<path class="st3" d="M75,58.1"/>
					<g>
						<polyline class="st3" points="58,24.8 57.8,15.1 57.8,4 92,4 92,15 92.2,24.7 						"/>
					</g>
					<g>
						<polyline class="st3" points="54.6,136.4 54.6,146 95.4,146 95.4,136.4 						"/>
					</g>
				</g>
				<line class="st3" x1="36.2" y1="50.3" x2="48.6" y2="50.3"/>
				<line class="st3" x1="110.1" y1="50.3" x2="69.1" y2="50.3"/>
				<g>
					<line class="st3" x1="75" y1="24.5" x2="75" y2="19.7"/>
				</g>
			</g>
		</g>
	</g>
</g>
<g id="Giftcard" class="st0">
	<g class="st2">
		<rect x="16.5" y="98.8" class="st5" width="116.9" height="45.2"/>
		<g>
			<rect x="16.5" y="63.7" class="st3" width="116.9" height="82.3"/>
			<polyline class="st3" points="125.3,63.7 140.2,63.7 140.2,37.3 9.8,37.3 9.8,63.7 			"/>
			<g>
				<path class="st3" d="M92.2,36.2c4.1-0.8,8.6-3.3,12.3-7.4c6.6-7.5,8-17.2,2.9-21.6s-15.9-4.8-21.1,3.7
					c-3.1,5.1-8.4,22.8-11.3,22.8s-8.1-17.7-11.3-22.8c-5.3-8.5-16.1-8.1-21.1-3.7s-3.7,14.2,2.9,21.6c4.2,4.7,9.5,7.4,14.1,7.6"/>
			</g>
		</g>
		<line class="st3" x1="17" y1="64" x2="9.8" y2="64"/>
	</g>
</g>
<g id="Offer" class="st0">
	<g class="st2">
		<path class="st6" d="M26.8,118.5L140.4,9.3c0,0,11.1,7.7,2.8,24.3c-8.3,16.5-5.3,37.2-5.3,37.2l-73.6,73.7c0,0-5.9,1.6-19.8-8.3
			S26.8,118.5,26.8,118.5z"/>
		<g>
			<g>
				<g>
					<path class="st3" d="M138.8,62.1c0.4,4.1,0.2,8.2-2.7,11.1l-69.6,69.6c-4.3,4.3-11.2,4.3-15.4,0L6.9,98.6
						c-4.3-4.3-4.3-11.2,0-15.4l69.9-69.9c2.7-2.7,6.6-3.1,10.5-2.8c7.1,0.4,21.7-1.4,28.3-4.1c8.5-3.4,18.1-3.8,24.9,2.9l0,0
						c7.1,7.1,5.7,17,2.1,26C140,41.6,138.2,55.4,138.8,62.1z"/>
				</g>
				<circle class="st3" cx="113.8" cy="36" r="8.7"/>
			</g>
		</g>
	</g>
</g>
<g id="Wallet" class="st0">
	<g class="st2">
		<path class="st10" d="M58.7,132.8H18.9c-8.2,0-14.9-6.7-14.9-14.9V32.1c0-8.2,6.7-14.9,14.9-14.9h39.8"/>
		<g>
			<g>
				<path class="st3" d="M136,97.8v20.1c0,8.2-6.7,14.9-14.9,14.9H18.9c-8.2,0-14.9-6.7-14.9-14.9V32.1c0-8.2,6.7-14.9,14.9-14.9
					h102.2c8.2,0,14.9,6.7,14.9,14.9v21.8"/>
				<path class="st3" d="M144.1,93.2H80.7c-3.2,0-5.9-2.6-5.9-5.9V62.6c0-3.2,2.6-5.9,5.9-5.9h63.4c1.1,0,1.9,0.9,1.9,1.9v32.6
					C146,92.4,145.1,93.2,144.1,93.2z"/>
			</g>
		</g>
		<line class="st3" x1="108.1" y1="75" x2="95.4" y2="75"/>
	</g>
</g>
<g id="User" class="st0">
	<g class="st2">
		<g>
			<path class="st6" d="M139,146v-23.5c0-13.1-10.7-23.7-23.7-23.7H75V146H139z"/>
			<path class="st6" d="M75,4c20,0,36.3,16.2,36.3,36.3S95,76.6,75,76.6"/>
		</g>
		<g>
			<g>
				<g>
					<path class="st3" d="M11,146v-23.5c0-13.1,10.7-23.7,23.7-23.7h80.5c13.1,0,23.7,10.7,23.7,23.7V146H11z"/>
				</g>
				<circle class="st3" cx="75" cy="40.3" r="36.3"/>
			</g>
		</g>
	</g>
</g>
<g id="Electricity_1_" class="st0">
	<g class="st2">
		<path class="st9" d="M135.4,106.8h-31.1v-87h31.1c5,0,9,4,9,9v69C144.4,102.7,140.4,106.8,135.4,106.8z"/>
		<path class="st3" d="M138,106.8H70.7c-4.4,0-8-3.6-8-8V28.7c0-4.4,3.6-8,8-8H138c4.4,0,8,3.6,8,8v70.1
			C146,103.2,142.4,106.8,138,106.8z"/>
		<path class="st3" d="M27.1,91.9h-1.3C13.8,91.9,4,82.1,4,70.1V46.3c0-0.6,0.4-1,1-1h42.9c0.6,0,1,0.4,1,1v23.8
			C48.9,82.1,39.1,91.9,27.1,91.9z"/>
		<circle class="st11" cx="104.3" cy="63.7" r="28.5"/>
		<path class="st3" d="M26.5,91.9v9.5c0,15.9,12.9,28.8,28.8,28.8h74.1"/>
		<line class="st3" x1="141.9" y1="130.2" x2="146" y2="130.2"/>
		<g>
			<line class="st3" x1="16.4" y1="45.3" x2="16.4" y2="26.1"/>
			<line class="st3" x1="36.5" y1="45.3" x2="36.5" y2="26.1"/>
		</g>
		<g>
			<line class="st3" x1="94" y1="59.9" x2="94" y2="67.5"/>
			<line class="st3" x1="114.7" y1="59.9" x2="114.7" y2="67.5"/>
		</g>
		<g>
			<line class="st3" x1="75.9" y1="63.7" x2="82.9" y2="63.7"/>
			<line class="st3" x1="125.8" y1="63.7" x2="132.7" y2="63.7"/>
		</g>
	</g>
</g>
<g id="Layer_15" class="st0">
	<g class="st2">
		<polygon class="st6" points="62.1,48.4 22.8,48.4 17.4,19.2 28.1,19.2 38.8,30 55.3,23.4 57.1,19.2 67.5,19.2 		"/>
		<polygon class="st6" points="77.7,90.5 73,132.8 107.7,132.8 127.7,130.9 123.3,90.5 		"/>
		<g>
			<path class="st3" d="M101.8,132.7c9.9,0.4,25.9-1.9,25.9-1.9s-3.2-12.7-4.4-25.7c-1.2-13,1.1-28.6,1.1-28.6l5.4,7.5
				c9.2,0.7,16.1-7.7,16.1-7.7s-3.7-7-8.1-14.9s-8.5-9.6-8.5-9.6L115,44.7c-3.4,1.1-13.2,1.2-13.2,1.2h-3.2c0,0-9.5-0.1-12.8-1.2
				l-14.4,7.1c0,0-4.1,1.8-8.5,9.6s-8.1,14.9-8.1,14.9s6.9,8.4,16.1,7.7l5.4-7.5c0,0,2.3,15.6,1.1,28.6s-4.4,25.7-4.4,25.7
				s16,2.2,25.9,1.9H101.8z"/>
			<path class="st3" d="M86.4,45.3c0,0,4.3,9.5,14.6,9.5s14-10.1,14-10.1"/>
			<path class="st3" d="M69,105.6c-6.1,1.5-14.5,2.8-24.8,2.5h-3c-24.2,0.6-37.3-7-37.3-7l19.3-42.4V52c-2.6-4-2.8-15.7-3-19.4
				C20.1,29,17,19.5,17,19.5l9.7-2.2c0,0,3.4,11.9,16,11.9s16-11.9,16-11.9l9.7,2.2c0,0-3.1,9.5-3.3,13.2c-0.2,3-0.3,11.5-1.8,16.7"
				/>
			<line class="st3" x1="23.3" y1="62.7" x2="51.4" y2="62.7"/>
			<line class="st3" x1="23.3" y1="49.3" x2="62.5" y2="49.3"/>
			<line class="st3" x1="33.4" y1="62.7" x2="29" y2="81.6"/>
		</g>
	</g>
</g>
<g id="Layer_16" class="st0">
	<g class="st2">
		<rect x="4" y="103.9" class="st5" width="46.3" height="37.2"/>
		<rect x="89.6" y="8.9" class="st5" width="25" height="32"/>
		<g>
			<g>
				<path class="st3" d="M76.5,141.1h54.4c6.6,0,12-5.4,12-12V52.9c0-6.6-5.4-12-12-12H76.5c-6.6,0-12,5.4-12,12v76.2
					C64.5,135.7,69.9,141.1,76.5,141.1z"/>
				<rect x="4" y="80" class="st3" width="46.3" height="61.2"/>
				<polyline class="st3" points="43,79.8 43,61.4 6.5,61.4 6.5,79.8 				"/>
				<path class="st3" d="M40.1,61.4V33.9c0,0,0-12.7-15.3-17.2s-14.1,8-14.1,8v36.7"/>
				<path class="st3" d="M27.7,34.6c-2.3-0.8-4.4-2-5.8-3.9"/>
				<g>
					<line class="st3" x1="124" y1="62.6" x2="124" y2="95.1"/>
					<line class="st3" x1="124" y1="106.1" x2="124" y2="119.4"/>
				</g>
				<polyline class="st3" points="114.7,40.9 114.7,8.9 90.1,8.9 90.1,40.9 				"/>
				<path class="st3" d="M114.7,23.5c0,0,13.1-0.5,20.1,0c3.7,0.3,11.2,1.7,11.2,10"/>
			</g>
		</g>
	</g>
</g>
<g id="Layer_17" class="st0">
	<path class="st4" d="M88.4,22.3c0,0-2.7,0.6-4,3.3c-1.3,2.7-2.6,7.8-1.3,7.8c1.3,0,42.6-0.7,42.6-0.7s8.4,1,8.1-3.1
		s-1.4-7.4-7.9-7.4S88.4,22.3,88.4,22.3z"/>
	<path class="st4" d="M21.4,100.6c0,0-6.2-0.2-3,7.9s5.5,16.1,27.4,16.1s39.8-0.2,39.8-0.2s12.2-0.8,14.6-14.2
		c2.4-13.4,2-9.7-3.7-9.7C90.8,100.6,21.4,100.6,21.4,100.6z"/>
	<polyline class="st12" points="130.7,92.6 126.1,124.6 100.7,124.6 	"/>
	<polyline class="st12" points="78.9,44.7 137.2,44.7 135.4,57.3 	"/>
	<polygon class="st12" points="146,44.7 70.1,44.7 73.5,33.4 142.7,33.4 	"/>
	<polyline class="st12" points="80.4,33.1 86,22.3 130.1,22.3 135.7,33.1 	"/>
	<polyline class="st12" points="102.2,62.2 141.5,62.2 137.6,90.2 113.1,90.2 	"/>
	<path class="st12" d="M37.3,27c0,0-6,3,0,9s-2.7,8.7-2.7,8.7"/>
	<path class="st12" d="M58.5,24.5c0,0-6,3,0,9s-2.7,8.7-2.7,8.7"/>
	<line class="st12" x1="4" y1="100.6" x2="115.1" y2="100.6"/>
	<path class="st12" d="M43.8,62.1c0,0,3.4-6.3,8.3-4.5s5.9,9.5,12.7,2.1c6.8-7.4,10.8-4.7,12.5,2.4c1.7,7.1,3.1,6.6,10.2,5.4
		c7.1-1.2,8.8,4.9,8.9,8.2"/>
	<path class="st12" d="M78.5,89.5L64.1,75.4c0,0-6.1,7.9-3.1,14.1"/>
	<path class="st12" d="M90,89.5c0-3.1,2.5-5.6,5.6-5.6c3.1,0,5.6,2.5,5.6,5.6"/>
	<path class="st12" d="M23.1,88.6c-1.8-2.4-2.9-5.4-2.9-8.7c0-7.9,6.4-14.4,14.4-14.4s14.4,6.4,14.4,14.4c0,3.3-1.1,6.3-2.9,8.7"/>
	<path class="st13" d="M37.3,73.1c0,1.5-1.8,4.4-2.7,4.4c-0.7,0-2.7-2.9-2.7-4.4s1.2-2.7,2.7-2.7C36,70.4,37.3,71.6,37.3,73.1z"/>
	<path class="st14" d="M27.5,77.1c1.5,0,4.4,1.8,4.4,2.7c0,0.7-2.9,2.7-4.4,2.7c-1.5,0-2.7-1.2-2.7-2.7C24.8,78.3,26,77.1,27.5,77.1
		z"/>
	<path class="st14" d="M31.5,86.8c0-1.5,1.8-4.4,2.7-4.4c0.7,0,2.7,2.9,2.7,4.4s-1.2,2.7-2.7,2.7C32.7,89.5,31.5,88.3,31.5,86.8z"/>
	<path class="st14" d="M41.3,82.8c-1.5,0-4.4-1.8-4.4-2.7c0-0.7,2.9-2.7,4.4-2.7c1.5,0,2.7,1.2,2.7,2.7C44,81.6,42.8,82.8,41.3,82.8
		z"/>
	<path class="st12" d="M103.2,101.5l-4.2,12c-2.3,6.7-8.6,11.2-15.7,11.2H35.8c-7.1,0-13.4-4.5-15.7-11.2l-4.5-12.9"/>
</g>
<g id="Layer_18" class="st0">
	<g class="st2">
		<polygon class="st5" points="114.6,143.5 28.1,143.5 22.7,99.9 122.2,99.9 		"/>
		<g>
			<path class="st3" d="M122.2,70.4l-3.9,63.1c-0.4,6.9-6.1,12.2-13,12.2H37.7c-6.9,0-12.5-5.3-13-12.2l-3.9-63.1c0,0,4,3.2,11,3.2
				s7.8-4.7,13.6-4.2c5.8,0.5,7,5,11.1,5.3c4.1,0.3,10.4-5.6,15.9-5.4c5.5,0.2,7.7,4.7,11.8,4.5c3.7-0.2,9.2-5.4,13.4-4.5
				c4.2,0.9,6.9,4.8,12,4.8S117.5,70,122.2,70.4z"/>
			<line class="st3" x1="33.8" y1="109.5" x2="51" y2="109.5"/>
			<line class="st3" x1="33.8" y1="119.9" x2="56.4" y2="119.9"/>
			<line class="st3" x1="33.8" y1="130.3" x2="61.8" y2="130.3"/>
			<line class="st3" x1="71.5" y1="130.3" x2="75.7" y2="130.3"/>
			<path class="st3" d="M81.5,73.2c0,0,7.9-32.2,20-50.4s13.7-17.9,19.7-18.4s9,11.9,8.8,20.2c-0.1,5.7-4.3,30-9.3,45.8"/>
			<path class="st3" d="M95.8,64.6c0,0,0.8-4.5,6.3-5.2c5.4-0.7,8.3,1.9,11.6-4.2"/>
			<path class="st3" d="M101.3,46.9c0,0,0.8-4.5,6.3-5.2c5.4-0.7,8.3,1.9,11.6-4.2"/>
			<path class="st3" d="M106.8,29.1c0,0,0.8-4,5.7-4.7c4.9-0.7,7.5,1.7,10.5-3.8"/>
			<path class="st3" d="M20.8,70.4c0,0-5.7-14.5,12.6-16.9c0,0,11.1-11.4,19.6-3s7.6,23.1,7.6,23.1"/>
			<path class="st3" d="M20.8,45.2c0,0,9.6,0.8,12.6,8.3"/>
			<path class="st3" d="M36.9,50.6c0,0-5.3-9.3,1.6-12.6c0,0-3.5-6.5,0-10.6s8.9-3.7,8.9-3.7S44,11.4,54.8,11.6
				c0,0,4.2-9.1,10.7-3.9c0,0,7.2-3.5,10.2,4.5c0,0,8.3,0.7,10.4,8.4c0,0,7.9,5.2,8.7,14.5"/>
			<path class="st3" d="M64.3,35.3c0,0,1.9,4.1-0.5,6.8c-2.4,2.8-5.9,6.6-3,15.2s3.6,13,3.6,13"/>
			<path class="st3" d="M80.9,30.6c0,0-1.5,5.3,1.5,6.1s6.8,2.7,9,6.2"/>
			<path class="st3" d="M81.3,30.8l-19,4.4c-0.5,0.1-1.1-0.2-1.2-0.8L60,29.8c-0.1-0.5,0.2-1.1,0.8-1.2l19-4.4
				c0.5-0.1,1.1,0.2,1.2,0.8l1.1,4.6C82.2,30.2,81.9,30.7,81.3,30.8z"/>
			<path class="st3" d="M63,60.5c0,0,6.6,1.5,12.6-2s8-5,10.8-4.8"/>
		</g>
	</g>
</g>
<g id="Layer_19" class="st0">
	<path class="st15" d="M9.9,102.1V116h24c0,0,7.1-5.4,13.7,1.3c6.6,6.7,5.1,8.7,5.1,8.7l11,1.9l36.8-0.6c0,0,0.4-14.5,16.5-13.7
		l5.5,4l17.6-1.5v-13.9H9.9z"/>
	<g class="st2">
		<g>
			<path class="st3" d="M30.5,119.1H11.5v-42c0-11.6,9.4-21,21-21h97c6.7,0,12.2,5.4,12.2,12.2v50.8h-19.1"/>
			<path class="st3" d="M25.9,131h-16C6.7,131,4,128.3,4,125v0c0-3.3,2.7-5.9,5.9-5.9"/>
			<line class="st3" x1="100.1" y1="131" x2="54.3" y2="131"/>
			<path class="st3" d="M140.1,119.1c3.3,0,5.9,2.7,5.9,5.9v0c0,3.3-2.7,5.9-5.9,5.9h-11.7"/>
			<circle class="st3" cx="39.7" cy="130.3" r="13.7"/>
			<circle class="st3" cx="39.7" cy="130.3" r="4.2"/>
			<circle class="st3" cx="114.2" cy="130.3" r="13.7"/>
			<circle class="st3" cx="114.2" cy="130.3" r="4.2"/>
			<line class="st3" x1="133.3" y1="106.9" x2="133.3" y2="110.2"/>
			<path class="st3" d="M110.4,94.2h-81c-2.8,0-5-2.2-5-5V78.5c0-6.1,4.9-11,11-11h75c2.8,0,5,2.2,5,5v16.7
				C115.4,92,113.2,94.2,110.4,94.2z"/>
			<path class="st3" d="M140.5,94.2H135c-3.1,0-5.5-2.5-5.5-5.5V73c0-3.1,2.5-5.5,5.5-5.5h5.5"/>
			<line class="st3" x1="44.1" y1="67.5" x2="44.1" y2="93.3"/>
			<line class="st3" x1="69.2" y1="67.5" x2="69.2" y2="93.3"/>
			<line class="st3" x1="95" y1="67.5" x2="95" y2="93.3"/>
		</g>
		<path class="st3" d="M98.9,34.3c9,4.7,16.4,11.9,21.3,20.8"/>
		<path class="st3" d="M29.7,56.2c4.6-8.8,11.6-16.1,20.2-21"/>
		<path class="st6" d="M93.2,24.7c0,13.7-18.7,22.2-18.7,22.2s-18.7-7-18.7-22.2C55.8,14.3,64.2,6,74.5,6S93.2,14.3,93.2,24.7z"/>
		<circle class="st3" cx="74.5" cy="23.5" r="6.9"/>
		<path class="st3" d="M104.7,37.7c0,0-5.5,9.4-9.7,10.7c-4.2,1.3,14.6,1.9,14.6,1.9l3.7-5"/>
		<path class="st3" d="M37.9,44.7c0,0,9,3.2,12.3,3.8c3.3,0.6,5.9-2.2,5.6-3.1c-0.3-1-7.8-9-7.8-9"/>
		<path class="st3" d="M93.2,24.7c0,13.7-18.7,22.2-18.7,22.2s-18.7-7-18.7-22.2C55.8,14.3,64.2,6,74.5,6S93.2,14.3,93.2,24.7z"/>
	</g>
</g>
<g id="Bus" class="st0">
	<g class="st2">
		<path class="st6" d="M127.2,123.9H22.8c-1.1,0-2-0.9-2-2V93.6c0-1.1,0.9-2,2-2h104.3c1.1,0,2,0.9,2,2v28.4
			C129.2,123,128.3,123.9,127.2,123.9z"/>
		<path class="st3" d="M123.3,123.5H26.7c-3.3,0-6-2.7-6-6V21.3c0-3.3,2.7-6,6-6h96.6c3.3,0,6,2.7,6,6v96.1
			C129.3,120.8,126.6,123.5,123.3,123.5z"/>
		<line class="st3" x1="23" y1="34.3" x2="127" y2="34.3"/>
		<line class="st3" x1="23" y1="74.9" x2="127" y2="74.9"/>
		<line class="st3" x1="69.8" y1="24.7" x2="80.2" y2="24.7"/>
		<line class="st3" x1="69.8" y1="98.3" x2="80.2" y2="98.3"/>
		<g>
			<circle class="st3" cx="45.8" cy="98.3" r="6.7"/>
			<circle class="st3" cx="104.2" cy="98.3" r="6.7"/>
		</g>
		<path class="st3" d="M41.3,138.7L41.3,138.7c-3.8,0-6.9-3.1-6.9-6.9v-8.3h13.8v8.3C48.2,135.6,45.1,138.7,41.3,138.7z"/>
		<path class="st3" d="M107,138.7L107,138.7c-3.8,0-6.9-3.1-6.9-6.9v-8.3h13.8v8.3C113.9,135.6,110.8,138.7,107,138.7z"/>
		<path class="st3" d="M140.8,58.5L140.8,58.5c-2.9,0-5.2-2.3-5.2-5.2v-9.1c0-2.9,2.3-5.2,5.2-5.2h0c2.9,0,5.2,2.3,5.2,5.2v9.1
			C146,56.1,143.7,58.5,140.8,58.5z"/>
		<path class="st3" d="M9.2,58.5L9.2,58.5c-2.9,0-5.2-2.3-5.2-5.2v-9.1C4,41.4,6.3,39,9.2,39h0c2.9,0,5.2,2.3,5.2,5.2v9.1
			C14.4,56.1,12,58.5,9.2,58.5z"/>
		<path class="st3" d="M129.3,29.7c0,0,11.5-2.7,11.5,9.4"/>
		<path class="st3" d="M20.8,29.7c0,0-11.5-2.7-11.5,9.4"/>
	</g>
</g>
<g id="Layer_21" class="st0">
	<g class="st2">
		<path class="st10" d="M18.7,107.3c0,0-9.2-0.2-4.4,11.7s8.1,23.8,40.4,23.8s58.7-0.2,58.7-0.2s17.9-1.2,21.5-21s2.9-14.3-5.4-14.3
			S18.7,107.3,18.7,107.3z"/>
		<path class="st3" d="M49,15.8c0,0-8.8,4.4,0,13.2s-3.9,12.8-3.9,12.8"/>
		<path class="st3" d="M112.6,15.8c0,0-8.8,4.4,0,13.2s-3.9,12.8-3.9,12.8"/>
		<path class="st3" d="M80.3,7.2c0,0-8.8,4.4,0,13.2s-3.9,12.8-3.9,12.8"/>
		<line class="st3" x1="4" y1="107.3" x2="146" y2="107.3"/>
		<path class="st3" d="M51.8,57.8c0,0,4.9-9.2,12.3-6.7c7.3,2.6,8.7,14.1,18.8,3.1s15.9-6.9,18.4,3.6c2.6,10.4,4.6,9.7,15,8
			s13,7.2,13.1,12.1"/>
		<path class="st3" d="M103,98.2L81.7,77.4c0,0-9,11.6-4.6,20.8"/>
		<path class="st3" d="M119.8,98.2c0-4.6,3.7-8.2,8.2-8.2c4.6,0,8.2,3.7,8.2,8.2"/>
		<path class="st3" d="M21.3,96.8c-2.7-3.6-4.3-8-4.3-12.8c0-11.7,9.5-21.2,21.2-21.2S59.3,72.3,59.3,84c0,4.8-1.6,9.2-4.3,12.8"/>
		<path class="st8" d="M42.1,74c0,2.2-2.7,6.5-4,6.5c-1,0-4-4.3-4-6.5s1.8-4,4-4S42.1,71.8,42.1,74z"/>
		<path class="st8" d="M27.7,79.9c2.2,0,6.5,2.7,6.5,4c0,1-4.3,4-6.5,4s-4-1.8-4-4C23.8,81.7,25.5,79.9,27.7,79.9z"/>
		<path class="st8" d="M33.6,94.3c0-2.2,2.7-6.5,4-6.5c1,0,4,4.3,4,6.5s-1.8,4-4,4C35.4,98.2,33.6,96.5,33.6,94.3z"/>
		<path class="st8" d="M48,88.3c-2.2,0-6.5-2.7-6.5-4c0-1,4.3-4,6.5-4s4,1.8,4,4C52,86.6,50.2,88.3,48,88.3z"/>
		<path class="st3" d="M139.3,108.6l-6.1,17.7c-3.4,9.9-12.8,16.5-23.2,16.5H40c-10.5,0-19.8-6.6-23.2-16.5l-6.6-19"/>
	</g>
</g>
<g id="Layer_22" class="st0">
	<g class="st2">
		<path class="st3" d="M21.8,57.6c0,0-6-15.2,13.2-17.8c0,0,11.7-12,20.6-3.1s8,24.3,8,24.3"/>
		<path class="st3" d="M21.8,31.1c0,0,10.1,0.9,13.2,8.7"/>
		<path class="st3" d="M72.5,17.9c0,0,2,4.3-0.6,7.2c-2.6,2.9-8.5,5.2-5.5,14.3"/>
		<path class="st3" d="M90,12.9c0,0-1.6,5.5,1.6,6.4c3.1,0.9,7.2,2.8,9.4,6.5"/>
		<path class="st3" d="M90.9,13.3l-20.1,3.3c-0.6,0.1-1.2-0.3-1.3-0.9l-1.3-7.1C68,8,68.4,7.4,69.1,7.3L89.2,4
			c0.6-0.1,1.2,0.3,1.3,0.9l1.3,7.1C91.9,12.6,91.5,13.2,90.9,13.3z"/>
		<polygon class="st5" points="121.2,143.7 30.2,143.7 24.5,97.9 129.1,97.9 		"/>
		<g>
			<path class="st3" d="M129.1,66.9l-4.1,66.3c-0.4,7.2-6.4,12.8-13.6,12.8H40.3c-7.2,0-13.2-5.6-13.6-12.8l-4.1-66.3
				c0,0,4.2,3.3,11.5,3.3s8.3-4.9,14.3-4.5s7.4,5.3,11.7,5.6c4.3,0.3,10.9-5.8,16.7-5.6c5.8,0.2,8.1,4.9,12.4,4.7
				c3.9-0.2,9.7-5.7,14.1-4.7s7.3,5.1,12.6,5.1S124.2,66.5,129.1,66.9z"/>
			<line class="st3" x1="36.2" y1="108" x2="54.3" y2="108"/>
			<line class="st3" x1="36.2" y1="118.9" x2="59.9" y2="118.9"/>
			<line class="st3" x1="36.2" y1="129.9" x2="65.6" y2="129.9"/>
			<line class="st3" x1="75.8" y1="129.9" x2="80.2" y2="129.9"/>
		</g>
		<polyline class="st3" points="72.4,59.1 72.4,43.1 120,43.1 120,59.1 		"/>
		<line class="st3" x1="100.6" y1="47" x2="100.6" y2="53.3"/>
	</g>
</g>
<g id="Twitter" class="st0">
	<g class="st2">
		<circle class="st16" cx="75" cy="75" r="71"/>
		<g>
			<path class="st17" d="M39.8,97.8c7.6,0.4,14.4-1.4,20.3-5.7c-2.6-1.2-5.4-2.1-7.8-3.6c-2.5-1.5-4.1-4-5-6.8
				c2-0.1,3.8-0.2,5.7-0.3c-6.7-2.7-10.6-7.2-11-14.5c2,0.5,3.9,1,6.2,1.6c-6.5-7.6-7.8-14-4-19.6C52,57.9,61.9,63,73.9,63.9
				c0.3-2.7,0.1-5.2,0.8-7.5c2.8-10.1,15.2-13.9,23.2-7.3c1.4,1.2,2.6,1.3,4.1,0.7c2.1-0.8,4.2-1.6,6.8-2.1
				c-1.7,2.3-3.5,4.7-5.4,7.2c2.1-0.5,4.2-1,6.3-1.5c0.1,0.1,0.2,0.3,0.4,0.4c-1.7,1.7-3.3,3.6-5.2,5.2c-1.2,1-1.6,2-1.6,3.5
				c-0.2,19.9-13.7,36.8-32.8,40.8c-10.1,2.1-19.9,0.8-29.1-4.2c-0.5-0.3-0.9-0.5-1.4-0.8C40.1,98.2,40,98,39.8,97.8z"/>
		</g>
	</g>
</g>
<g id="Google__x2B_" class="st0">
	<g class="st2">
		<circle class="st18" cx="75" cy="75" r="71"/>
		<g>
			<path class="st17" d="M78.2,79.8c-0.6-0.5-1.3-1-1.9-1.5c-1.3-1-2.6-2-3.7-3.2c-1.8-1.7-1.8-2.5,0-4.4c0.6-0.6,1.2-1.1,1.9-1.7
				c0.7-0.6,1.5-1.3,2.2-2c3.3-3.4,4.5-7.4,3.8-11.9c-0.4-2.5-1.3-4.7-2.7-6.6c3-0.7,4.8-3.2,6-4.9l0.7-1.2l-1.7-1.3h-0.5
				c-1.9,0-3.9,0-5.8,0c-4.7,0-9.6-0.1-14.4,0.1c-5.8,0.2-10.3,2.3-13.4,6.2c-3.8,4.7-4.6,10.3-2.4,16.2c2.1,5.5,6.5,8.6,13.5,9.4
				c0.3,0,0.6,0.1,0.9,0.1c-0.5,2.1-0.3,4,0.7,5.9c-4.1,0.2-8.9,0.8-13.4,3.3c-4.6,2.6-7.1,6.7-7.2,11.9c-0.1,4.8,2.4,8.6,7,11
				c4.7,2.4,9.5,3.6,14.4,3.6c4.2,0,8.5-0.9,12.8-2.6c6.8-2.8,10.2-8,9.7-15C84.4,85.6,81,82.2,78.2,79.8z M70.2,60.4l0,0.4
				c0,0.4,0,1-0.1,1.5c-0.3,2-1.3,3.6-2.7,4.5c-1.5,0.9-3.3,1-5.3,0.3c-2.9-1-5.3-3.7-6.5-7.2c-1.2-3.5-1-7.1,0.6-9.7
				c1.2-1.9,2.9-2.9,4.8-2.9c1.1,0,2.2,0.3,3.3,1C67.8,50.3,70.1,54.9,70.2,60.4z M75.2,94.7c-0.4,2.3-1.7,4.3-3.8,5.4
				c-5.5,3-10.9,3.1-16,0.4c-2.9-1.6-4.6-4.1-4.7-6.9c-0.1-2.9,1.5-5.5,4.4-7.3c2.5-1.5,5.1-2.2,7.8-2.2c0.1,0,0.3,0,0.4,0h0
				c4.2,0.1,7.3,1.3,9.7,3.8C74.8,89.7,75.6,92.2,75.2,94.7z"/>
			<polygon class="st17" points="100.6,50.7 100.6,42.2 93.4,42.2 93.4,50.8 84.8,50.8 84.8,58 93.4,58 93.4,66.6 100.7,66.6 
				100.7,58 109.3,58 109.3,50.7 			"/>
		</g>
	</g>
</g>
<g id="Facebook">
	<circle class="st19" cx="75" cy="75" r="71"/>
	<g>
		<path class="st17" d="M80.2,110.3c-5.1,0-9.8,0-14.7,0c0-11.7,0-23.4,0-35.2c-2.4,0-4.5,0-6.9,0c0-4.2,0-8.3,0-12.5
			c2.2,0,4.4,0,6.8,0c0-0.8,0-1.5,0-2.2c0.1-3.1-0.1-6.3,0.4-9.4c1.1-6.6,5.3-10.5,12.1-11c4.3-0.4,8.7-0.1,13.1-0.1
			c0,3.9,0,7.8,0,11.9c-2.2,0-4.5,0-6.7,0c-3.3,0-4.3,0.9-4.3,4.2c0,2.1,0,4.2,0,6.5c3.7,0,7.3,0,11.2,0c-0.4,4.3-0.8,8.3-1.3,12.5
			c-3.3,0-6.5,0-9.8,0C80.2,86.8,80.2,98.5,80.2,110.3z"/>
	</g>
</g>
</svg>
