<?xml version="1.0" encoding="utf-8"?>
<!-- Generator: Adobe Illustrator 22.0.1, SVG Export Plug-In . SVG Version: 6.00 Build 0)  -->
<svg version="1.1" xmlns="http://www.w3.org/2000/svg" xmlns:xlink="http://www.w3.org/1999/xlink" x="0px" y="0px"
	 viewBox="0 0 150 150" style="enable-background:new 0 0 150 150;" xml:space="preserve">
<style type="text/css">
	.st0{display:none;}
	.st1{display:inline;fill:#FFD046;}
	.st2{display:inline;}
	.st3{fill:none;stroke:#444A54;stroke-width:8;stroke-linecap:round;stroke-linejoin:round;stroke-miterlimit:10;}
	.st4{display:inline;fill:#F1813A;}
	.st5{fill:#8DB654;}
	.st6{fill:#6795CE;}
	.st7{fill:none;stroke:#6C6E70;stroke-width:5;stroke-linecap:round;stroke-linejoin:round;stroke-miterlimit:10;}
	.st8{fill:#444A54;}
	.st9{fill:#FFD046;}
	.st10{fill:#F1813A;}
	.st11{fill:#42CCFC;}
	.st12{fill:#FFFFFF;}
	.st13{fill:#DB3C2C;}
	.st14{fill:#0074A9;}
</style>
<g id="Mobile" class="st0">
	<rect x="51.7" y="26.3" class="st1" width="68.6" height="92.2"/>
	<g class="st2">
		<path class="st3" d="M118.9,147.8l-85.8,0.1c-1.7,0-3-1.3-3-3L30,6c0-1.7,1.3-3,3-3l85.8-0.1c1.7,0,3,1.3,3,3l0.2,138.9
			C121.9,146.4,120.5,147.8,118.9,147.8z"/>
		<line class="st3" x1="70" y1="132.6" x2="82" y2="132.5"/>
		<line class="st3" x1="31.2" y1="26.3" x2="120.6" y2="26.2"/>
		<line class="st3" x1="120.3" y1="118.5" x2="31.6" y2="118.6"/>
	</g>
</g>
<g id="DTH" class="st0">
	<path class="st4" d="M113.1,137.9c-10.8,6.6-14.8,9.6-28.4,9.6c-39.5,0-63.6-13.6-63.6-53.2c0-13.3,3.6-25.7,9.9-36.4L113.1,137.9z
		"/>
	<g class="st2">
		<circle class="st3" cx="86" cy="64" r="7.6"/>
		<path class="st3" d="M81.8,29c21.7,0.2,39.2,17.9,39,39.6"/>
		<path class="st3" d="M77.6,4c38,0.3,68.5,31.3,68.2,69.2"/>
		<path class="st3" d="M110.8,135.8c-10.6,6.5-23.1,10.2-36.4,10.2c-38.7,0-70.1-31.4-70.1-70.1c0-13,3.5-25.2,9.7-35.6L110.8,135.8
			z"/>
	</g>
</g>
<g id="Electricity" class="st0">
	<g class="st2">
		<path class="st5" d="M72.3,120.2l18.2,0c5.8,0,10.4-4.7,10.4-10.4v0l0.1-9.6c9.7-7.8,15.9-19.7,15.9-33.1
			c0-24.2-20.1-43.6-44.5-42.5"/>
		<g>
			<line class="st3" x1="74.3" y1="8.5" x2="74.3" y2="4"/>
			<line class="st3" x1="45.3" y1="16.6" x2="43.1" y2="12.7"/>
			<line class="st3" x1="24.3" y1="38.2" x2="20.4" y2="35.9"/>
			<line class="st3" x1="16.8" y1="67.3" x2="12.3" y2="67.3"/>
			<line class="st3" x1="25" y1="96.3" x2="21.1" y2="98.6"/>
			<line class="st3" x1="125.7" y1="95.2" x2="129.6" y2="97.4"/>
			<line class="st3" x1="133.2" y1="66" x2="137.7" y2="66"/>
			<line class="st3" x1="125" y1="37" x2="128.9" y2="34.7"/>
			<line class="st3" x1="103.5" y1="15.9" x2="105.7" y2="12.1"/>
			<path class="st3" d="M91.7,132.1l0,7.9c0,3.3-2.7,6-6,6l-22.9,0c-3.3,0-6-2.6-6-5.9l0-8L91.7,132.1z"/>
			<path class="st3" d="M116.9,67.2c0-24.2-20.1-43.6-44.5-42.5c-22.1,1-40.1,19.6-40.5,41.7c-0.2,13.7,6,26,15.9,33.9l-0.1,9.5v0
				c0,5.7,4.7,10.4,10.4,10.4l32.5,0c5.8,0,10.4-4.7,10.4-10.4v0l0.1-9.6C110.7,92.5,116.9,80.5,116.9,67.2z"/>
		</g>
	</g>
</g>
<g id="Datacard" class="st0">
	<g class="st2">
		<polyline class="st6" points="46.6,32.9 46.5,15.2 46.5,4.1 103.4,4 103.4,15.1 103.5,32.9 		"/>
		<path class="st3" d="M110.5,145.9L39.7,146c-5.3,0-9.6-4.3-9.6-9.5l-0.1-91c0-5.3,4.3-9.6,9.5-9.6l70.8-0.1c5.3,0,9.6,4.3,9.6,9.5
			l0.1,91C120,141.6,115.7,145.9,110.5,145.9z"/>
		<path class="st7" d="M118.7,58.7"/>
		<polyline class="st3" points="46.6,32.9 46.5,15.2 46.5,4.1 103.4,4 103.4,15.1 103.5,32.9 		"/>
		<circle class="st8" cx="75" cy="120.4" r="7.8"/>
	</g>
</g>
<g id="Landline" class="st0">
	<g class="st2">
		<g>
			<g>
				<g>
					<line class="st3" x1="79" y1="71.5" x2="84.2" y2="71.5"/>
					<line class="st3" x1="100.7" y1="71.5" x2="105.9" y2="71.5"/>
					<line class="st3" x1="122.4" y1="71.5" x2="127.6" y2="71.5"/>
					<line class="st3" x1="79" y1="86.6" x2="84.2" y2="86.6"/>
					<line class="st3" x1="100.7" y1="86.6" x2="105.9" y2="86.6"/>
					<line class="st3" x1="122.4" y1="86.6" x2="127.6" y2="86.6"/>
					<line class="st3" x1="79" y1="101.8" x2="84.2" y2="101.8"/>
					<line class="st3" x1="100.7" y1="101.8" x2="105.9" y2="101.8"/>
					<line class="st3" x1="122.4" y1="101.8" x2="127.6" y2="101.8"/>
				</g>
			</g>
			<g>
				<polyline class="st3" points="130.5,16.5 146,16.5 146,135.3 60.6,135.3 60.6,16.5 76.1,16.5 				"/>
			</g>
			<g>
				<rect x="76.1" y="11" class="st9" width="54.4" height="24.3"/>
				<rect x="76.1" y="11" class="st3" width="54.4" height="24.3"/>
			</g>
			<g>
				<path class="st9" d="M20.5,139C11.4,139,4,131.5,4,122.4v-20.6c0,0,2.8-19.2,2.8-24.6C6.8,70.4,4,52.8,4,52.8V27.6
					C4,18.5,11.4,11,20.5,11h5.5c9.1,0,16.5,7.4,16.5,16.5v25.2c0,0-2.8,17.6-2.8,24.4c0,5.5,2.8,24.6,2.8,24.6v20.6
					c0,9.1-7.4,16.5-16.5,16.5H20.5z"/>
				<path class="st3" d="M20.5,139C11.4,139,4,131.5,4,122.4v-20.6c0,0,2.8-19.2,2.8-24.6C6.8,70.4,4,52.8,4,52.8V27.6
					C4,18.5,11.4,11,20.5,11h5.5c9.1,0,16.5,7.4,16.5,16.5v25.2c0,0-2.8,17.6-2.8,24.4c0,5.5,2.8,24.6,2.8,24.6v20.6
					c0,9.1-7.4,16.5-16.5,16.5H20.5z"/>
			</g>
		</g>
	</g>
</g>
<g id="Layer_6" class="st0">
	<g class="st2">
		<path class="st10" d="M113.8,86.7v26.8c0,11-8.9,20-20,20H56.2c-11,0-20-8.9-20-20V86.7"/>
		<g>
			<g>
				<g>
					<path class="st3" d="M75,58.1"/>
					<path class="st3" d="M100.8,133.5H49.2c-7.2,0-13-5.8-13-13V41.2c0-7.2,5.8-13,13-13h51.5c7.2,0,13,5.8,13,13v79.2
						C113.8,127.7,107.9,133.5,100.8,133.5z"/>
					<path class="st3" d="M75,58.1"/>
					<g>
						<polyline class="st3" points="58,24.8 57.8,15.1 57.8,4 92,4 92,15 92.2,24.7 						"/>
					</g>
					<g>
						<polyline class="st3" points="54.6,136.4 54.6,146 95.4,146 95.4,136.4 						"/>
					</g>
				</g>
				<line class="st3" x1="36.2" y1="50.3" x2="48.6" y2="50.3"/>
				<line class="st3" x1="110.1" y1="50.3" x2="69.1" y2="50.3"/>
				<g>
					<line class="st3" x1="75" y1="24.5" x2="75" y2="19.7"/>
				</g>
			</g>
		</g>
	</g>
</g>
<g id="Giftcard" class="st0">
	<g class="st2">
		<rect x="16.5" y="98.8" class="st5" width="116.9" height="45.2"/>
		<g>
			<rect x="16.5" y="63.7" class="st3" width="116.9" height="82.3"/>
			<polyline class="st3" points="125.3,63.7 140.2,63.7 140.2,37.3 9.8,37.3 9.8,63.7 			"/>
			<g>
				<path class="st3" d="M92.2,36.2c4.1-0.8,8.6-3.3,12.3-7.4c6.6-7.5,8-17.2,2.9-21.6s-15.9-4.8-21.1,3.7
					c-3.1,5.1-8.4,22.8-11.3,22.8s-8.1-17.7-11.3-22.8c-5.3-8.5-16.1-8.1-21.1-3.7s-3.7,14.2,2.9,21.6c4.2,4.7,9.5,7.4,14.1,7.6"/>
			</g>
		</g>
		<line class="st3" x1="17" y1="64" x2="9.8" y2="64"/>
	</g>
</g>
<g id="Offer" class="st0">
	<g class="st2">
		<path class="st6" d="M26.8,118.5L140.4,9.3c0,0,11.1,7.7,2.8,24.3c-8.3,16.5-5.3,37.2-5.3,37.2l-73.6,73.7c0,0-5.9,1.6-19.8-8.3
			S26.8,118.5,26.8,118.5z"/>
		<g>
			<g>
				<g>
					<path class="st3" d="M138.8,62.1c0.4,4.1,0.2,8.2-2.7,11.1l-69.6,69.6c-4.3,4.3-11.2,4.3-15.4,0L6.9,98.6
						c-4.3-4.3-4.3-11.2,0-15.4l69.9-69.9c2.7-2.7,6.6-3.1,10.5-2.8c7.1,0.4,21.7-1.4,28.3-4.1c8.5-3.4,18.1-3.8,24.9,2.9l0,0
						c7.1,7.1,5.7,17,2.1,26C140,41.6,138.2,55.4,138.8,62.1z"/>
				</g>
				<circle class="st3" cx="113.8" cy="36" r="8.7"/>
			</g>
		</g>
	</g>
</g>
<g id="Wallet" class="st0">
	<g class="st2">
		<path class="st10" d="M58.7,132.8H18.9c-8.2,0-14.9-6.7-14.9-14.9V32.1c0-8.2,6.7-14.9,14.9-14.9h39.8"/>
		<g>
			<g>
				<path class="st3" d="M136,97.8v20.1c0,8.2-6.7,14.9-14.9,14.9H18.9c-8.2,0-14.9-6.7-14.9-14.9V32.1c0-8.2,6.7-14.9,14.9-14.9
					h102.2c8.2,0,14.9,6.7,14.9,14.9v21.8"/>
				<path class="st3" d="M144.1,93.2H80.7c-3.2,0-5.9-2.6-5.9-5.9V62.6c0-3.2,2.6-5.9,5.9-5.9h63.4c1.1,0,1.9,0.9,1.9,1.9v32.6
					C146,92.4,145.1,93.2,144.1,93.2z"/>
			</g>
		</g>
		<line class="st3" x1="108.1" y1="75" x2="95.4" y2="75"/>
	</g>
</g>
<g id="User" class="st0">
	<g class="st2">
		<g>
			<path class="st6" d="M139,146v-23.5c0-13.1-10.7-23.7-23.7-23.7H75V146H139z"/>
			<path class="st6" d="M75,4c20,0,36.3,16.2,36.3,36.3S95,76.6,75,76.6"/>
		</g>
		<g>
			<g>
				<g>
					<path class="st3" d="M11,146v-23.5c0-13.1,10.7-23.7,23.7-23.7h80.5c13.1,0,23.7,10.7,23.7,23.7V146H11z"/>
				</g>
				<circle class="st3" cx="75" cy="40.3" r="36.3"/>
			</g>
		</g>
	</g>
</g>
<g id="Twitter" class="st0">
	<g class="st2">
		<circle class="st11" cx="75" cy="75" r="71"/>
		<g>
			<path class="st12" d="M39.8,97.8c7.6,0.4,14.4-1.4,20.3-5.7c-2.6-1.2-5.4-2.1-7.8-3.6c-2.5-1.5-4.1-4-5-6.8
				c2-0.1,3.8-0.2,5.7-0.3c-6.7-2.7-10.6-7.2-11-14.5c2,0.5,3.9,1,6.2,1.6c-6.5-7.6-7.8-14-4-19.6C52,57.9,61.9,63,73.9,63.9
				c0.3-2.7,0.1-5.2,0.8-7.5c2.8-10.1,15.2-13.9,23.2-7.3c1.4,1.2,2.6,1.3,4.1,0.7c2.1-0.8,4.2-1.6,6.8-2.1
				c-1.7,2.3-3.5,4.7-5.4,7.2c2.1-0.5,4.2-1,6.3-1.5c0.1,0.1,0.2,0.3,0.4,0.4c-1.7,1.7-3.3,3.6-5.2,5.2c-1.2,1-1.6,2-1.6,3.5
				c-0.2,19.9-13.7,36.8-32.8,40.8c-10.1,2.1-19.9,0.8-29.1-4.2c-0.5-0.3-0.9-0.5-1.4-0.8C40.1,98.2,40,98,39.8,97.8z"/>
		</g>
	</g>
</g>
<g id="Google__x2B_">
	<g>
		<circle class="st13" cx="75" cy="75" r="71"/>
		<g>
			<path class="st12" d="M78.2,79.8c-0.6-0.5-1.3-1-1.9-1.5c-1.3-1-2.6-2-3.7-3.2c-1.8-1.7-1.8-2.5,0-4.4c0.6-0.6,1.2-1.1,1.9-1.7
				c0.7-0.6,1.5-1.3,2.2-2c3.3-3.4,4.5-7.4,3.8-11.9c-0.4-2.5-1.3-4.7-2.7-6.6c3-0.7,4.8-3.2,6-4.9l0.7-1.2l-1.7-1.3h-0.5
				c-1.9,0-3.9,0-5.8,0c-4.7,0-9.6-0.1-14.4,0.1c-5.8,0.2-10.3,2.3-13.4,6.2c-3.8,4.7-4.6,10.3-2.4,16.2c2.1,5.5,6.5,8.6,13.5,9.4
				c0.3,0,0.6,0.1,0.9,0.1c-0.5,2.1-0.3,4,0.7,5.9c-4.1,0.2-8.9,0.8-13.4,3.3c-4.6,2.6-7.1,6.7-7.2,11.9c-0.1,4.8,2.4,8.6,7,11
				c4.7,2.4,9.5,3.6,14.4,3.6c4.2,0,8.5-0.9,12.8-2.6c6.8-2.8,10.2-8,9.7-15C84.4,85.6,81,82.2,78.2,79.8z M70.2,60.4l0,0.4
				c0,0.4,0,1-0.1,1.5c-0.3,2-1.3,3.6-2.7,4.5c-1.5,0.9-3.3,1-5.3,0.3c-2.9-1-5.3-3.7-6.5-7.2c-1.2-3.5-1-7.1,0.6-9.7
				c1.2-1.9,2.9-2.9,4.8-2.9c1.1,0,2.2,0.3,3.3,1C67.8,50.3,70.1,54.9,70.2,60.4z M75.2,94.7c-0.4,2.3-1.7,4.3-3.8,5.4
				c-5.5,3-10.9,3.1-16,0.4c-2.9-1.6-4.6-4.1-4.7-6.9c-0.1-2.9,1.5-5.5,4.4-7.3c2.5-1.5,5.1-2.2,7.8-2.2c0.1,0,0.3,0,0.4,0h0
				c4.2,0.1,7.3,1.3,9.7,3.8C74.8,89.7,75.6,92.2,75.2,94.7z"/>
			<polygon class="st12" points="100.6,50.7 100.6,42.2 93.4,42.2 93.4,50.8 84.8,50.8 84.8,58 93.4,58 93.4,66.6 100.7,66.6 
				100.7,58 109.3,58 109.3,50.7 			"/>
		</g>
	</g>
</g>
<g id="Facebook" class="st0">
	<g class="st2">
		<circle class="st14" cx="75" cy="75" r="71"/>
		<g>
			<path class="st12" d="M80.2,110.3c-5.1,0-9.8,0-14.7,0c0-11.7,0-23.4,0-35.2c-2.4,0-4.5,0-6.9,0c0-4.2,0-8.3,0-12.5
				c2.2,0,4.4,0,6.8,0c0-0.8,0-1.5,0-2.2c0.1-3.1-0.1-6.3,0.4-9.4c1.1-6.6,5.3-10.5,12.1-11c4.3-0.4,8.7-0.1,13.1-0.1
				c0,3.9,0,7.8,0,11.9c-2.2,0-4.5,0-6.7,0c-3.3,0-4.3,0.9-4.3,4.2c0,2.1,0,4.2,0,6.5c3.7,0,7.3,0,11.2,0c-0.4,4.3-0.8,8.3-1.3,12.5
				c-3.3,0-6.5,0-9.8,0C80.2,86.8,80.2,98.5,80.2,110.3z"/>
		</g>
	</g>
</g>
</svg>
