<?xml version="1.0" encoding="utf-8"?>
<!-- Generator: Adobe Illustrator 22.0.1, SVG Export Plug-In . SVG Version: 6.00 Build 0)  -->
<svg version="1.1" id="Layer_1" xmlns="http://www.w3.org/2000/svg" xmlns:xlink="http://www.w3.org/1999/xlink" x="0px" y="0px"
	 viewBox="0 0 300 98.1" style="enable-background:new 0 0 300 98.1;" xml:space="preserve">
<style type="text/css">
	.st0{clip-path:url(#SVGID_2_);fill:url(#SVGID_3_);}
	.st1{clip-path:url(#SVGID_5_);fill:url(#SVGID_6_);}
	.st2{clip-path:url(#SVGID_8_);fill:url(#SVGID_9_);}
	.st3{clip-path:url(#SVGID_11_);fill:url(#SVGID_12_);}
	.st4{fill:#F9F9F9;}
	.st5{fill:#F9F9FA;}
</style>
<g>
	<path d="M300,84.9c0,7.3-5.9,13.3-13.3,13.3H13.3C5.9,98.1,0,92.2,0,84.9V13.3C0,5.9,5.9,0,13.3,0h273.5c7.3,0,13.3,5.9,13.3,13.3
		L300,84.9L300,84.9L300,84.9z"/>
	<g>
		<defs>
			<path id="SVGID_1_" d="M65,43.2l-13.5-7.8c0,0-24.6-14.2-26.1-15.1c-1.4-0.8-2.9-0.3-2.9,1.4v61.4c0,1.3,1,1.9,2.3,1.1
				c1.3-0.7,26.7-15.4,26.7-15.4L65,61c0,0,11.5-6.6,13-7.5c1.5-0.9,1.4-2.1,0.1-2.8C76.8,50.1,65,43.2,65,43.2L65,43.2z"/>
		</defs>
		<clipPath id="SVGID_2_">
			<use xlink:href="#SVGID_1_"  style="overflow:visible;"/>
		</clipPath>
		
			<linearGradient id="SVGID_3_" gradientUnits="userSpaceOnUse" x1="899.1064" y1="-1083.0328" x2="899.1064" y2="-1077.4949" gradientTransform="matrix(12 0 0 12 -10750.0186 13015.2871)">
			<stop  offset="0" style="stop-color:#257CB0"/>
			<stop  offset="0.286" style="stop-color:#4A93B5"/>
			<stop  offset="0.767" style="stop-color:#78BCBB"/>
			<stop  offset="1" style="stop-color:#89CFBD"/>
		</linearGradient>
		<path class="st0" d="M22.5,18.9v66.5L56,52.1L22.5,18.9z"/>
	</g>
	<g>
		<defs>
			<path id="SVGID_4_" d="M65,43.2l-13.5-7.8c0,0-24.6-14.2-26.1-15.1c-1.4-0.8-2.9-0.3-2.9,1.4v61.4c0,1.3,1,1.9,2.3,1.1
				c1.3-0.7,26.7-15.4,26.7-15.4L65,61c0,0,11.5-6.6,13-7.5c1.5-0.9,1.4-2.1,0.1-2.8C76.8,50.1,65,43.2,65,43.2L65,43.2z"/>
		</defs>
		<clipPath id="SVGID_5_">
			<use xlink:href="#SVGID_4_"  style="overflow:visible;"/>
		</clipPath>
		
			<linearGradient id="SVGID_6_" gradientUnits="userSpaceOnUse" x1="897.7101" y1="-1081.6584" x2="901.2527" y2="-1081.6584" gradientTransform="matrix(12 0 0 12 -10750.0186 13015.2871)">
			<stop  offset="0" style="stop-color:#52C1AD"/>
			<stop  offset="1" style="stop-color:#DEE89A"/>
		</linearGradient>
		<path class="st1" d="M65,43.2l-13.5-7.8l-29-16.7v0.2L56,52.1L65,43.2z"/>
	</g>
	<g>
		<defs>
			<path id="SVGID_7_" d="M65,43.2l-13.5-7.8c0,0-24.6-14.2-26.1-15.1c-1.4-0.8-2.9-0.3-2.9,1.4v61.4c0,1.3,1,1.9,2.3,1.1
				c1.3-0.7,26.7-15.4,26.7-15.4L65,61c0,0,11.5-6.6,13-7.5c1.5-0.9,1.4-2.1,0.1-2.8C76.8,50.1,65,43.2,65,43.2L65,43.2z"/>
		</defs>
		<clipPath id="SVGID_8_">
			<use xlink:href="#SVGID_7_"  style="overflow:visible;"/>
		</clipPath>
		
			<linearGradient id="SVGID_9_" gradientUnits="userSpaceOnUse" x1="899.4813" y1="-1080.2638" x2="899.4813" y2="-1077.4747" gradientTransform="matrix(12 0 0 12 -10750.0186 13015.2871)">
			<stop  offset="0" style="stop-color:#EC413D"/>
			<stop  offset="0.167" style="stop-color:#DA4452"/>
			<stop  offset="0.575" style="stop-color:#B0487A"/>
			<stop  offset="0.862" style="stop-color:#954A92"/>
			<stop  offset="1" style="stop-color:#8A4A9D"/>
		</linearGradient>
		<path class="st2" d="M22.5,85.3v0.2l29-16.7L65,61l-9-8.9L22.5,85.3z"/>
	</g>
	<g>
		<defs>
			<path id="SVGID_10_" d="M65,43.2l-13.5-7.8c0,0-24.6-14.2-26.1-15.1c-1.4-0.8-2.9-0.3-2.9,1.4v61.4c0,1.3,1,1.9,2.3,1.1
				c1.3-0.7,26.7-15.4,26.7-15.4L65,61c0,0,11.5-6.6,13-7.5c1.5-0.9,1.4-2.1,0.1-2.8C76.8,50.1,65,43.2,65,43.2L65,43.2z"/>
		</defs>
		<clipPath id="SVGID_11_">
			<use xlink:href="#SVGID_10_"  style="overflow:visible;"/>
		</clipPath>
		
			<linearGradient id="SVGID_12_" gradientUnits="userSpaceOnUse" x1="901.5218" y1="-1081.0076" x2="901.5218" y2="-1079.5201" gradientTransform="matrix(12 0 0 12 -10750.0186 13015.2871)">
			<stop  offset="0" style="stop-color:#F58879"/>
			<stop  offset="0.119" style="stop-color:#F69079"/>
			<stop  offset="0.713" style="stop-color:#FCB877"/>
			<stop  offset="1" style="stop-color:#FEC874"/>
		</linearGradient>
		<path class="st3" d="M65,43.2l-9,8.9l9,8.9l15.5-8.9L65,43.2z"/>
	</g>
	<path class="st4" d="M233.5,65.1c-1.3,0-2.4-0.2-3.4-0.7c-1-0.5-1.9-1.2-2.6-2.1h-0.2c0.1,1.1,0.2,2.2,0.2,3.2v8h-2.9v-28h2.4
		l0.4,2.6h0.1c0.8-1.1,1.6-1.8,2.6-2.3c1-0.5,2.1-0.7,3.4-0.7c2.6,0,4.5,0.9,5.9,2.6c1.4,1.8,2.1,4.2,2.1,7.4c0,3.2-0.7,5.6-2.1,7.4
		C238,64.2,236,65.1,233.5,65.1L233.5,65.1z M233.1,47.6c-2,0-3.4,0.5-4.3,1.6c-0.9,1.1-1.3,2.8-1.4,5.2v0.7c0,2.7,0.5,4.7,1.4,5.8
		c0.9,1.2,2.4,1.8,4.4,1.8c1.7,0,3-0.7,3.9-2c0.9-1.4,1.4-3.2,1.4-5.6c0-2.4-0.5-4.3-1.4-5.5C236.1,48.2,234.8,47.6,233.1,47.6
		L233.1,47.6z M248.3,64.8h-2.9V37.3h2.9V64.8z M265.1,64.8l-0.6-2.8h-0.1c-1,1.2-1.9,2-2.9,2.5c-1,0.4-2.2,0.6-3.6,0.6
		c-1.9,0-3.4-0.5-4.5-1.5c-1.1-1-1.6-2.4-1.6-4.2c0-3.9,3.1-5.9,9.4-6.1l3.3-0.1V52c0-1.5-0.3-2.6-1-3.4c-0.7-0.7-1.7-1.1-3.1-1.1
		c-1.6,0-3.4,0.5-5.5,1.5l-0.9-2.2c1-0.5,2-0.9,3.1-1.2c1.1-0.3,2.3-0.4,3.4-0.4c2.3,0,4,0.5,5.1,1.5c1.1,1,1.7,2.7,1.7,4.9v13.2
		L265.1,64.8L265.1,64.8L265.1,64.8z M258.5,62.7c1.8,0,3.3-0.5,4.3-1.5c1-1,1.6-2.4,1.6-4.2v-1.7l-2.9,0.1c-2.3,0.1-4,0.4-5,1.1
		c-1,0.6-1.5,1.6-1.5,3c0,1.1,0.3,1.9,1,2.4C256.4,62.4,257.3,62.7,258.5,62.7L258.5,62.7z M269,45.4h3.1l4.2,11
		c0.9,2.5,1.5,4.3,1.7,5.4h0.1c0.2-0.6,0.5-1.6,1-3.1c0.5-1.5,2.1-5.9,4.8-13.4h3.1l-8.3,22c-0.8,2.2-1.8,3.7-2.9,4.6
		c-1.1,0.9-2.4,1.4-4,1.4c-0.9,0-1.8-0.1-2.6-0.3v-2.3c0.6,0.1,1.4,0.2,2.2,0.2c2,0,3.4-1.1,4.3-3.4l1.1-2.8L269,45.4L269,45.4z
		 M179.2,47.2c0.9,0.8,2.9,2.4,2.9,5.5c0,3-1.7,4.4-3.4,5.7c-0.5,0.5-1.1,1.1-1.1,2c0,0.9,0.6,1.4,1.1,1.7l1.5,1.1
		c1.8,1.5,3.4,2.9,3.4,5.7c0,3.8-3.7,7.6-10.6,7.6c-5.9,0-8.7-2.8-8.7-5.8c0-1.5,0.7-3.5,3.1-4.9c2.5-1.5,5.9-1.7,7.7-1.9
		c-0.6-0.7-1.2-1.5-1.2-2.7c0-0.7,0.2-1.1,0.4-1.6c-0.4,0-0.9,0.1-1.3,0.1c-4.3,0-6.7-3.2-6.7-6.3c0-1.9,0.8-3.9,2.6-5.4
		c2.3-1.9,5.1-2.2,7.2-2.2h8.3l-2.6,1.5L179.2,47.2L179.2,47.2L179.2,47.2z M176.4,65.2c-0.3,0-0.5,0-0.9,0c-0.4,0-2.5,0.1-4.2,0.6
		c-0.9,0.3-3.5,1.3-3.5,4.2c0,2.9,2.8,4.9,7.1,4.9c3.9,0,5.9-1.9,5.9-4.4C180.8,68.4,179.5,67.4,176.4,65.2L176.4,65.2z M177.6,57.5
		c0.9-0.9,1-2.2,1-3c0-2.9-1.7-7.4-5.1-7.4c-1.1,0-2.2,0.5-2.8,1.3c-0.7,0.8-0.9,1.9-0.9,3c0,2.7,1.6,7.2,5.1,7.2
		C175.8,58.6,176.9,58.1,177.6,57.5L177.6,57.5z M153.8,64.5c-6.4,0-9.8-5-9.8-9.5c0-5.3,4.3-9.8,10.5-9.8c5.9,0,9.6,4.6,9.6,9.5
		C164.1,59.5,160.4,64.5,153.8,64.5L153.8,64.5z M158.8,61.3c1-1.3,1.2-2.9,1.2-4.5c0-3.6-1.7-10.3-6.7-10.3c-1.3,0-2.7,0.5-3.6,1.4
		c-1.6,1.4-1.9,3.2-1.9,4.9c0,4,2,10.6,6.9,10.6C156.3,63.3,157.9,62.6,158.8,61.3L158.8,61.3z M131.9,64.5c-6.4,0-9.8-5-9.8-9.5
		c0-5.3,4.3-9.8,10.5-9.8c5.9,0,9.6,4.6,9.6,9.5C142.2,59.5,138.5,64.5,131.9,64.5z M137,61.3c1-1.3,1.2-2.9,1.2-4.5
		c0-3.6-1.7-10.3-6.7-10.3c-1.3,0-2.7,0.5-3.6,1.4c-1.6,1.4-1.9,3.2-1.9,4.9c0,4,2,10.6,6.9,10.6C134.4,63.3,136,62.6,137,61.3z
		 M119,63.9l-5.8,1.3c-2.4,0.4-4.5,0.7-6.7,0.7C95.3,65.9,91,57.7,91,51.2c0-7.9,6-15.2,16.4-15.2c2.2,0,4.3,0.3,6.2,0.9
		c3,0.9,4.5,1.9,5.4,2.5l-3.4,3.2l-1.4,0.3l1-1.6c-1.4-1.3-3.9-3.8-8.7-3.8c-6.4,0-11.2,4.9-11.2,12c0,7.6,5.5,14.8,14.4,14.8
		c2.6,0,3.9-0.5,5.2-1v-6.5l-6.1,0.3l3.2-1.7h8.6l-1.1,1c-0.3,0.2-0.3,0.3-0.4,0.6c0,0.4-0.1,1.5-0.1,1.9L119,63.9L119,63.9
		L119,63.9z"/>
	<path class="st4" d="M192.1,62.7c-1.3-0.1-1.6-0.4-1.6-1.9v-23c0-0.1,0-0.2,0-0.3c0.2-1.4,0.6-1.7,1.8-2.4h-5.8l-3,1.5h3.1v0l0,0
		v25.1c0,0.8-0.2,0.9-1.1,2.1h7.2l1.5-0.9C193.5,62.8,192.8,62.8,192.1,62.7L192.1,62.7z M208.6,63.1c-0.4,0.2-0.9,0.5-1.3,0.7
		c-1.3,0.6-2.7,0.8-3.9,0.8c-1.3,0-3.3-0.1-5.4-1.6c-2.9-2-4.1-5.5-4.1-8.5c0-6.2,5.1-9.3,9.2-9.3c1.5,0,2.9,0.4,4.2,1.1
		c2,1.3,2.5,3.1,2.8,4l-9.5,3.8l-3.1,0.2c1,5.1,4.5,8.1,8.3,8.1c2.1,0,3.5-0.7,4.9-1.4L208.6,63.1L208.6,63.1z M204.8,51.1
		c0.8-0.3,1.2-0.5,1.2-1.1c0-1.6-1.8-3.5-4-3.5c-1.6,0-4.6,1.2-4.6,5.6c0,0.7,0.1,1.4,0.1,2.1L204.8,51.1L204.8,51.1z M212.5,45.5
		v2.7h-0.3v-2.7h-0.9v-0.3h2.1v0.3H212.5L212.5,45.5z M216.1,48.1v-2.7h0l-0.8,2.7H215l-0.8-2.7h0v2.7h-0.3v-2.9h0.5l0.7,2.4h0
		l0.7-2.4h0.5v2.9H216.1L216.1,48.1z"/>
	<path class="st5" d="M99.1,28.2h-2c0-0.3-0.2-1.1-0.6-2.4h-2.9c-0.4,1.3-0.6,2.1-0.6,2.4h-1.9c0-0.2,0.5-1.5,1.5-4
		c1-2.5,1.5-3.9,1.5-4.2h2.4c0,0.2,0.4,1.6,1.3,4.1C98.7,26.6,99.1,27.9,99.1,28.2z M96.2,24.6c-0.7-2.2-1.1-3.3-1.1-3.5H95
		c0,0.2-0.4,1.3-1.1,3.5L96.2,24.6L96.2,24.6z M107.2,28.2h-1.6c0-0.2-0.6-1.1-1.7-2.7c-1.2-1.7-1.9-2.9-2.1-3.6h-0.1
		c0.1,0.9,0.2,1.8,0.2,2.5c0,1,0,2.3,0.1,3.8h-1.6c0.1-1.3,0.1-2.7,0.1-4.3c0-1.5,0-2.8-0.1-3.9h1.9c0,0.2,0.5,1.1,1.6,2.7
		c1.1,1.7,1.7,2.8,1.9,3.4h0.1c-0.1-0.9-0.2-1.8-0.2-2.5c0-1.1,0-2.3-0.1-3.5h1.6c-0.1,1-0.1,2.3-0.1,3.9
		C107.1,25.5,107.2,26.9,107.2,28.2z M116.4,23.8c0,1.2-0.4,2.2-1.1,3.1c-0.8,0.9-1.8,1.3-3.2,1.3c-0.6,0-1.5,0-2.6-0.1
		c0.1-1.3,0.1-2.7,0.1-4.3c0-1.5,0-2.8-0.1-3.9h1.1c0.2,0,0.4,0,0.8,0c0.4,0,0.6,0,0.7,0c1.5,0,2.6,0.4,3.3,1.1
		C116,21.8,116.4,22.7,116.4,23.8L116.4,23.8z M114.6,24c0-0.8-0.2-1.5-0.7-2c-0.5-0.6-1.2-0.8-2.2-0.8c-0.2,0-0.4,0-0.7,0.1
		c0,0.8,0.1,1.7,0.1,2.6c0,1,0,2,0.1,3c0.3,0.1,0.5,0.1,0.8,0.1c0.9,0,1.6-0.3,2-0.8C114.4,25.5,114.6,24.9,114.6,24L114.6,24z
		 M124.8,28.2h-1.9c-0.5-1.5-0.9-2.4-1.1-2.8c-0.3-0.3-0.7-0.5-1.3-0.5c-0.2,0-0.5,0-0.7,0c0,1.1,0,2.2,0.1,3.3h-1.8
		c0.1-1.3,0.1-2.7,0.1-4.3c0-1.5,0-2.8-0.1-3.9h1.1c0.1,0,0.4,0,0.8,0c0.4,0,0.8,0,1.1,0c1.9,0,2.9,0.7,2.9,2c0,1-0.6,1.8-1.7,2.2
		v0.1c0.4,0.1,0.8,0.4,1.1,1C123.8,25.7,124.2,26.7,124.8,28.2z M122.4,22.4c0-0.8-0.5-1.3-1.6-1.3c-0.4,0-0.7,0-1,0.1
		c0,0.7,0.1,1.5,0.1,2.5c0.2,0,0.4,0,0.6,0C121.7,23.8,122.4,23.3,122.4,22.4z M133.8,23.9c0,1.3-0.4,2.4-1.2,3.2
		c-0.8,0.8-1.8,1.3-2.9,1.3c-1.1,0-2-0.4-2.8-1.2c-0.7-0.8-1.1-1.8-1.1-3c0-1.3,0.4-2.4,1.2-3.2c0.8-0.8,1.8-1.3,2.9-1.3
		c1.1,0,2,0.4,2.8,1.2C133.4,21.7,133.8,22.7,133.8,23.9L133.8,23.9z M132.1,24.1c0-0.9-0.2-1.6-0.7-2.1c-0.4-0.5-1-0.8-1.7-0.8
		c-0.6,0-1.1,0.3-1.6,0.8c-0.4,0.6-0.6,1.2-0.6,2.1c0,0.9,0.2,1.6,0.7,2.1c0.5,0.5,1,0.8,1.7,0.8c0.6,0,1.1-0.3,1.6-0.8
		C131.9,25.6,132.1,24.9,132.1,24.1L132.1,24.1z M137.4,28.2h-1.8c0.1-1.3,0.1-2.7,0.1-4.3c0-1.5,0-2.8-0.1-3.9h1.8
		c-0.1,1.1-0.1,2.4-0.1,3.9C137.3,25.5,137.3,26.9,137.4,28.2z M146.5,23.8c0,1.2-0.4,2.2-1.1,3.1c-0.8,0.9-1.8,1.3-3.2,1.3
		c-0.6,0-1.5,0-2.6-0.1c0.1-1.3,0.1-2.7,0.1-4.3c0-1.5,0-2.8-0.1-3.9h1.1c0.2,0,0.4,0,0.8,0c0.4,0,0.6,0,0.7,0
		c1.5,0,2.6,0.4,3.3,1.1C146.2,21.8,146.5,22.7,146.5,23.8L146.5,23.8z M144.8,24c0-0.8-0.2-1.5-0.7-2c-0.5-0.6-1.2-0.8-2.2-0.8
		c-0.2,0-0.4,0-0.7,0.1c0,0.8,0.1,1.7,0.1,2.6c0,1,0,2,0.1,3c0.3,0.1,0.5,0.1,0.8,0.1c0.9,0,1.6-0.3,2-0.8
		C144.6,25.5,144.8,24.9,144.8,24z M158.6,28.2h-2c0-0.3-0.2-1.1-0.6-2.4h-2.9c-0.4,1.3-0.6,2.1-0.6,2.4h-1.9c0-0.2,0.5-1.5,1.5-4
		c1-2.5,1.5-3.9,1.5-4.2h2.4c0,0.2,0.4,1.6,1.3,4.1C158.2,26.6,158.6,27.9,158.6,28.2L158.6,28.2z M155.7,24.6
		c-0.7-2.2-1.1-3.3-1.1-3.5h-0.1c0,0.2-0.4,1.3-1.1,3.5L155.7,24.6L155.7,24.6z M166,22.1c0,1-0.4,1.7-1.1,2.2s-1.7,0.7-2.7,0.7
		c-0.2,0-0.3,0-0.4,0c0,0.8,0,1.8,0.1,3.1H160c0.1-1.2,0.1-2.6,0.1-4.3c0-1.5,0-2.8-0.1-3.9h1.1c0.2,0,0.5,0,0.9,0s0.8,0,1.1,0
		c0.8,0,1.5,0.2,2,0.5C165.7,20.8,166,21.4,166,22.1L166,22.1z M164.3,22.5c0-0.9-0.6-1.3-1.8-1.3c-0.3,0-0.6,0-0.9,0.1
		c0,0.8,0.1,1.7,0.1,2.7c0.1,0,0.2,0,0.4,0C163.6,23.9,164.3,23.4,164.3,22.5z M173.5,22.1c0,1-0.4,1.7-1.1,2.2
		c-0.7,0.5-1.7,0.7-2.7,0.7c-0.2,0-0.3,0-0.4,0c0,0.8,0,1.8,0.1,3.1h-1.8c0.1-1.2,0.1-2.6,0.1-4.3c0-1.5,0-2.8-0.1-3.9h1.1
		c0.2,0,0.5,0,0.9,0c0.4,0,0.8,0,1.1,0c0.8,0,1.5,0.2,2,0.5C173.2,20.8,173.5,21.4,173.5,22.1L173.5,22.1z M171.9,22.5
		c0-0.9-0.6-1.3-1.8-1.3c-0.3,0-0.6,0-0.9,0.1c0,0.8,0.1,1.7,0.1,2.7c0.1,0,0.2,0,0.4,0C171.1,23.9,171.9,23.4,171.9,22.5z
		 M185.9,23.9c0,1.3-0.4,2.4-1.2,3.2c-0.8,0.8-1.8,1.3-2.9,1.3c-1.1,0-2-0.4-2.8-1.2c-0.7-0.8-1.1-1.8-1.1-3c0-1.3,0.4-2.4,1.2-3.2
		c0.8-0.8,1.8-1.3,2.9-1.3c1.1,0,2,0.4,2.8,1.2C185.5,21.7,185.9,22.7,185.9,23.9L185.9,23.9z M184.1,24.1c0-0.9-0.2-1.6-0.7-2.1
		c-0.4-0.5-1-0.8-1.7-0.8c-0.6,0-1.1,0.3-1.6,0.8c-0.4,0.6-0.6,1.2-0.6,2.1c0,0.9,0.2,1.6,0.7,2.1c0.5,0.5,1,0.8,1.7,0.8
		c0.6,0,1.1-0.3,1.6-0.8C183.9,25.6,184.1,24.9,184.1,24.1L184.1,24.1z M194.4,28.2h-1.6c0-0.2-0.6-1.1-1.7-2.7
		c-1.2-1.7-1.9-2.9-2.1-3.6H189c0.1,0.9,0.2,1.8,0.2,2.5c0,1,0,2.3,0.1,3.8h-1.6c0.1-1.3,0.1-2.7,0.1-4.3c0-1.5,0-2.8-0.1-3.9h1.9
		c0,0.2,0.5,1.1,1.6,2.7c1.1,1.7,1.7,2.8,1.9,3.4h0.1c-0.1-0.9-0.2-1.8-0.2-2.5c0-1.1,0-2.3-0.1-3.5h1.6c-0.1,1-0.1,2.3-0.1,3.9
		C194.3,25.5,194.4,26.9,194.4,28.2z"/>
</g>
</svg>
